# xmcd CD database file
#
# Track frame offsets:
#	150
#	13479
#	26776
#	42584
#	56956
#	70216
#	84325
#	95932
#	111206
#	125312
#	139061
#	153163
#	166545
#	181622
#	195234
#	209953
#	225416
#	242358
#
# Disc length: 3538 seconds
#
# Revision: 1
# Processed by: cddbd v1.5.2PL0 Copyright (c) Steve Scherf et al.
# Submitted via: CDex 1.70beta2
#
DISCID=f30dd012
DTITLE=Thelonious Monk - Midnight Monk [CD1]
DYEAR=2006
DGENRE=Jazz
TTITLE0=Straight No Chaser
TTITLE1=Criss Cross
TTITLE2=Four In One
TTITLE3='Round About Midnight
TTITLE4=In Walked Bud
TTITLE5=Monk's Mood
TTITLE6=Evidence
TTITLE7=Misterioso
TTITLE8=Epistrophy
TTITLE9=Nice Work If You Can Get It
TTITLE10=Ruby My Dear
TTITLE11=Well You Needn't
TTITLE12=April In Paris
TTITLE13=Off Minor
TTITLE14=Ask Me Now
TTITLE15=Carolina Moon
TTITLE16=Let's Cool One
TTITLE17=Let's Call This
EXTD=YEAR: 2006
EXTT0=
EXTT1=
EXTT2=
EXTT3=
EXTT4=
EXTT5=
EXTT6=
EXTT7=
EXTT8=
EXTT9=
EXTT10=
EXTT11=
EXTT12=
EXTT13=
EXTT14=
EXTT15=
EXTT16=
EXTT17=
PLAYORDER=
